<svg width="60" height="60" viewBox="0 0 15.875 15.875" xmlns="http://www.w3.org/2000/svg">
    <path class="prefix__st20"
        d="M86.5 87.4c-.6 2.1-1.1 3.7-2.1 5.1C81 97.3 72 98.4 72 98.4V115l-69.5.5 113.4-.6.7-77.2L58.1 2.1 2.5 37.7V50S19.3 18 63 23.6c9.5 1.5 16.5 7.4 20.6 10.3 4.1 2.9 4.3 3.7 4.3 3.7s15.5 4.3 15.4 4.9c-2.2 2.6-7.6 3.1-12.9 3.7 0 0-2 23.8-2.5 33.4-.2 1.1-.2 4.1-1.4 7.8z"
        fill="#3d3d3d" stroke="#1a0b12" stroke-miterlimit="10" transform="matrix(.12438 0 0 .12489 .53 .6)" />
    <path class="prefix__st21"
        d="M50.7 87.4s-13.2 5-16.8 3c-8.2-4.6-9.2-5.9-15.1-11.3-1-.9-2.2-2.8-1.8-4.4.6-2.7 2.6-3.9 5.3-3.2 1.5.4 8.8 8.1 14 9.4.9.9 10.4-2.5 14.9-4.2 2.4-.9 6.1-1.6 6.1-2.7 0-.7-1.3-.8-2.6-1.9-2.4-1.9-3.7-5.8-2.8-9.5 1.1-4.6 5.3-6.4 5.8-6.6.7-.3 4.6-1.8 8.3.5 3.4 2.1 4.4 6.2 4.1 9.1-.1.9-.3 3-1.8 4.7-1.5 1.7-3.3 1.9-3.3 2.9 0 .9 1.4 1.4 2.5 2 2.9 1.8 3.8 5.3 4.6 8.8.5 2 .7 3.2.8 4.4.2 4.6-.6 9.8-.6 9.8v16.6l-21.4.1c-.3.2-1-15.8-.2-27.5"
        fill="#c4c4c4" stroke="#231f20" stroke-miterlimit="10" transform="matrix(.12438 0 0 .12489 .53 .6)" />
</svg>