<?xml version="1.0" standalone="no"?>
<!DOCTYPE svg PUBLIC "-//W3C//DTD SVG 20010904//EN"
 "http://www.w3.org/TR/2001/REC-SVG-20010904/DTD/svg10.dtd">
<svg version="1.0" xmlns="http://www.w3.org/2000/svg"
 width="700.000000pt" height="700.000000pt" viewBox="0 0 700.000000 700.000000"
 preserveAspectRatio="xMidYMid meet">
<metadata>
Created by potrace 1.14, written by Peter Selinger 2001-2017
</metadata>
<g transform="translate(0.000000,700.000000) scale(0.100000,-0.100000)"
fill="#000000" stroke="none">
<path d="M3275 6559 c-77 -49 -180 -116 -230 -148 -49 -32 -439 -282 -865
-556 -426 -274 -815 -524 -865 -556 -49 -32 -288 -185 -530 -341 l-440 -283
-1 -393 c0 -215 3 -392 7 -392 4 0 10 9 14 19 20 64 195 318 306 446 64 74
254 263 334 332 261 225 594 422 920 545 155 58 396 127 500 143 11 2 49 8 85
15 36 7 76 14 90 16 182 26 348 37 535 38 116 0 364 -11 402 -18 10 -2 50 -7
88 -11 219 -23 475 -113 710 -249 207 -120 655 -448 685 -503 8 -14 33 -27 74
-38 33 -9 90 -25 126 -35 212 -63 287 -85 390 -117 63 -20 115 -35 115 -34 0
1 26 -9 58 -21 33 -13 59 -27 59 -33 -1 -29 -184 -100 -307 -120 -86 -14 -238
-35 -297 -41 -38 -3 -68 -9 -69 -13 0 -3 -2 -13 -4 -22 -2 -14 -11 -115 -20
-239 -3 -48 -15 -196 -20 -250 -3 -25 -7 -76 -10 -115 -3 -38 -7 -95 -10 -125
-5 -53 -9 -106 -20 -270 -5 -70 -9 -129 -20 -255 -2 -27 -6 -95 -10 -150 -3
-55 -8 -120 -10 -145 -2 -25 -7 -92 -10 -150 -6 -111 -9 -142 -25 -285 -12
-102 -20 -137 -62 -285 -48 -171 -93 -259 -170 -332 -88 -84 -247 -162 -427
-208 -129 -34 -123 -34 -117 3 20 136 29 483 14 577 -13 77 -65 292 -88 360
-52 150 -134 258 -240 314 -65 34 -90 54 -90 72 0 7 31 33 68 57 150 97 214
236 207 442 -14 372 -325 595 -676 486 -119 -37 -253 -143 -315 -248 -154
-263 -65 -626 183 -752 51 -25 53 -28 36 -43 -10 -9 -103 -45 -208 -81 -104
-36 -275 -95 -380 -132 -104 -37 -197 -68 -205 -70 -8 -2 -55 -15 -105 -30
-53 -16 -116 -28 -155 -29 -57 -1 -75 4 -150 41 -125 61 -327 204 -472 334
-84 75 -176 139 -213 147 -127 28 -234 -25 -286 -143 -32 -73 -29 -139 10
-219 25 -51 54 -85 139 -163 158 -147 163 -152 216 -197 27 -22 54 -46 60 -51
63 -58 314 -221 459 -300 85 -45 90 -47 175 -48 164 -2 352 38 655 137 117 39
121 40 113 28 -9 -16 -17 -345 -17 -697 1 -350 3 -423 16 -647 l7 -108 -144 0
c-407 -2 -2429 -17 -2465 -19 -7 -1 -13 -12 -13 -26 0 -21 5 -25 28 -25 83 -1
1080 2 1602 5 333 2 1127 6 1765 10 638 3 1448 8 1800 10 352 2 733 4 847 5
l207 0 1 248 c1 243 4 525 15 1637 3 308 8 873 11 1255 3 382 7 794 8 915 2
121 1 225 -1 232 -3 7 -39 33 -81 59 -43 26 -93 57 -112 69 -19 13 -343 210
-720 440 -377 229 -701 427 -720 440 -35 22 -429 263 -482 294 -15 9 -78 47
-140 86 -62 38 -122 75 -133 81 -11 6 -202 122 -424 258 -222 136 -409 249
-415 252 -6 2 -74 -37 -151 -87z"/>
</g>
</svg>
